{
  "accessors": [
    {
      "bufferView": 2,
      "componentType": 5126,
      "count": 24728,
      "max": [0.9984710216522217, 0.6400989890098572, 0.32679399847984314],
      "min": [-0.9984710216522217, -0.6488379836082458, -0.39042899012565613],
      "type": "VEC3"
    },
    {
      "bufferView": 2,
      "byteOffset": 296736,
      "componentType": 5126,
      "count": 24728,
      "max": [1.0, 1.0, 1.0],
      "min": [-1.0, -1.0, -1.0],
      "type": "VEC3"
    },
    {
      "bufferView": 3,
      "componentType": 5126,
      "count": 24728,
      "max": [0.9999812841415405, 0.9999988675117493, 1.0, 1.0],
      "min": [-0.9999809265136719, -0.9999999403953552, -1.0, 1.0],
      "type": "VEC4"
    },
    {
      "bufferView": 1,
      "componentType": 5126,
      "count": 24728,
      "max": [0.9763380289077759, 0.9978899955749512],
      "min": [0.002016110112890601, 0.0019531199941411614],
      "type": "VEC2"
    },
    {
      "bufferView": 0,
      "componentType": 5125,
      "count": 138180,
      "type": "SCALAR"
    },
    {
      "bufferView": 2,
      "byteOffset": 593472,
      "componentType": 5126,
      "count": 29181,
      "max": [0.8315790295600891, 0.6499390006065369, 0.40994998812675476],
      "min": [-0.799278974533081, -0.1982859969139099, -0.23951099812984467],
      "type": "VEC3"
    },
    {
      "bufferView": 2,
      "byteOffset": 943644,
      "componentType": 5126,
      "count": 29181,
      "max": [1.0, 1.0, 1.0],
      "min": [-1.0, -1.0, -1.0],
      "type": "VEC3"
    },
    {
      "bufferView": 3,
      "byteOffset": 395648,
      "componentType": 5126,
      "count": 29181,
      "max": [1.0, 0.9999994039535522, 0.9999989867210388, 1.0],
      "min": [-0.9999990463256836, -1.0, -1.0, -1.0],
      "type": "VEC4"
    },
    {
      "bufferView": 1,
      "byteOffset": 197824,
      "componentType": 5126,
      "count": 29181,
      "max": [0.9942709803581238, 0.9980469942092896],
      "min": [0.0019531199941411614, 0.0019531199941411614],
      "type": "VEC2"
    },
    {
      "bufferView": 0,
      "byteOffset": 552720,
      "componentType": 5125,
      "count": 154992,
      "type": "SCALAR"
    },
    {
      "bufferView": 2,
      "byteOffset": 1293816,
      "componentType": 5126,
      "count": 7482,
      "max": [1.0, 0.6402999758720398, 0.30517399311065674],
      "min": [-1.0, -0.6499390006065369, -0.40994998812675476],
      "type": "VEC3"
    },
    {
      "bufferView": 2,
      "byteOffset": 1383600,
      "componentType": 5126,
      "count": 7482,
      "max": [1.0, 0.9999764561653137, 1.0],
      "min": [-1.0, -0.9941922426223755, -1.0],
      "type": "VEC3"
    },
    {
      "bufferView": 3,
      "byteOffset": 862544,
      "componentType": 5126,
      "count": 7482,
      "max": [0.9997607469558716, 0.9999974370002747, 0.9999995827674866, 1.0],
      "min": [-0.9999662637710571, -0.9999969005584717, -0.9932405352592468, 1.0],
      "type": "VEC4"
    },
    {
      "bufferView": 1,
      "byteOffset": 431272,
      "componentType": 5126,
      "count": 7482,
      "max": [0.9625040292739868, 0.9978929758071899],
      "min": [0.001956220017746091, 0.002103809965774417],
      "type": "VEC2"
    },
    {
      "bufferView": 0,
      "byteOffset": 1172688,
      "componentType": 5125,
      "count": 41856,
      "type": "SCALAR"
    }
  ],
  "asset": {
    "extras": {
      "author": "AHarmlessPotato (https://sketchfab.com/AHarmlessPotato)",
      "license": "CC-BY-4.0 (http://creativecommons.org/licenses/by/4.0/)",
      "source": "https://sketchfab.com/3d-models/playstation-5-dualsense-878c1f882808477ab81c2fe86d5a3936",
      "title": "Playstation 5 Dualsense"
    },
    "generator": "Sketchfab-12.67.0",
    "version": "2.0"
  },
  "bufferViews": [
    {
      "buffer": 0,
      "byteLength": 1340112,
      "name": "floatBufferViews",
      "target": 34963
    },
    {
      "buffer": 0,
      "byteLength": 491128,
      "byteOffset": 1340112,
      "byteStride": 8,
      "name": "floatBufferViews",
      "target": 34962
    },
    {
      "buffer": 0,
      "byteLength": 1473384,
      "byteOffset": 1831240,
      "byteStride": 12,
      "name": "floatBufferViews",
      "target": 34962
    },
    {
      "buffer": 0,
      "byteLength": 982256,
      "byteOffset": 3304624,
      "byteStride": 16,
      "name": "floatBufferViews",
      "target": 34962
    }
  ],
  "buffers": [
    {
      "byteLength": 4286880,
      "uri": "ps5-controller.bin"
    }
  ],
  "images": [
    {
      "uri": "textures/1011_baseColor.png"
    },
    {
      "uri": "textures/1011_metallicRoughness.png"
    },
    {
      "uri": "textures/1011_emissive.jpeg"
    },
    {
      "uri": "textures/1011_normal.png"
    },
    {
      "uri": "textures/1001_baseColor.png"
    },
    {
      "uri": "textures/1001_metallicRoughness.png"
    },
    {
      "uri": "textures/1001_normal.png"
    },
    {
      "uri": "textures/1002_baseColor.jpeg"
    },
    {
      "uri": "textures/1002_metallicRoughness.png"
    },
    {
      "uri": "textures/1002_normal.png"
    }
  ],
  "materials": [
    {
      "alphaMode": "BLEND",
      "doubleSided": true,
      "emissiveFactor": [1.0, 1.0, 1.0],
      "emissiveTexture": {
        "index": 2
      },
      "name": "1011",
      "normalTexture": {
        "index": 3
      },
      "pbrMetallicRoughness": {
        "baseColorTexture": {
          "index": 0
        },
        "metallicRoughnessTexture": {
          "index": 1
        }
      }
    },
    {
      "alphaMode": "BLEND",
      "doubleSided": true,
      "name": "1001",
      "normalTexture": {
        "index": 6
      },
      "pbrMetallicRoughness": {
        "baseColorTexture": {
          "index": 4
        },
        "metallicRoughnessTexture": {
          "index": 5
        }
      }
    },
    {
      "doubleSided": true,
      "name": "1002",
      "normalTexture": {
        "index": 9
      },
      "pbrMetallicRoughness": {
        "baseColorTexture": {
          "index": 7
        },
        "metallicRoughnessTexture": {
          "index": 8
        }
      }
    }
  ],
  "meshes": [
    {
      "name": "defaultMaterial",
      "primitives": [
        {
          "attributes": {
            "NORMAL": 1,
            "POSITION": 0,
            "TANGENT": 2,
            "TEXCOORD_0": 3
          },
          "indices": 4,
          "material": 0,
          "mode": 4
        }
      ]
    },
    {
      "name": "defaultMaterial",
      "primitives": [
        {
          "attributes": {
            "NORMAL": 6,
            "POSITION": 5,
            "TANGENT": 7,
            "TEXCOORD_0": 8
          },
          "indices": 9,
          "material": 1,
          "mode": 4
        }
      ]
    },
    {
      "name": "defaultMaterial",
      "primitives": [
        {
          "attributes": {
            "NORMAL": 11,
            "POSITION": 10,
            "TANGENT": 12,
            "TEXCOORD_0": 13
          },
          "indices": 14,
          "material": 2,
          "mode": 4
        }
      ]
    }
  ],
  "nodes": [
    {
      "children": [1],
      "matrix": [
        -0.19568417966365814, -1.2308557397739447e-32, 5.543281450992774e-17, 0.0, 5.543281450992774e-17, -4.345061636349582e-17, 0.19568417966365814, 0.0, 0.0, 0.19568417966365814,
        4.345061636349582e-17, 0.0, 1.3947486877441406e-5, 4.343193804601555e-9, -1.4079718084758497e-6, 1.0
      ],
      "name": "Sketchfab_model"
    },
    {
      "children": [2],
      "matrix": [1.0, 0.0, 0.0, 0.0, 0.0, -4.371139006309477e-8, 0.999999999999999, 0.0, 0.0, -0.999999999999999, -4.371139006309477e-8, 0.0, 0.0, 0.0, 0.0, 1.0],
      "name": "Collada visual scene group"
    },
    {
      "children": [3, 4, 5],
      "name": "DualSense"
    },
    {
      "mesh": 0,
      "name": "defaultMaterial"
    },
    {
      "mesh": 1,
      "name": "defaultMaterial"
    },
    {
      "mesh": 2,
      "name": "defaultMaterial"
    }
  ],
  "samplers": [
    {
      "magFilter": 9729,
      "minFilter": 9987,
      "wrapS": 10497,
      "wrapT": 10497
    }
  ],
  "scene": 0,
  "scenes": [
    {
      "name": "Sketchfab_Scene",
      "nodes": [0]
    }
  ],
  "textures": [
    {
      "sampler": 0,
      "source": 0
    },
    {
      "sampler": 0,
      "source": 1
    },
    {
      "sampler": 0,
      "source": 2
    },
    {
      "sampler": 0,
      "source": 3
    },
    {
      "sampler": 0,
      "source": 4
    },
    {
      "sampler": 0,
      "source": 5
    },
    {
      "sampler": 0,
      "source": 6
    },
    {
      "sampler": 0,
      "source": 7
    },
    {
      "sampler": 0,
      "source": 8
    },
    {
      "sampler": 0,
      "source": 9
    }
  ]
}
